  0
SECTION
  2
BLOCKS
  0
ENDSEC
  0
SECTION
  2
ENTITIES
  0
LINE
  8
0
 10
-81.3254
 20
-47.8033
 11
-79.5221
 21
-47.1194
  0
LINE
  8
0
 10
-79.5221
 20
-47.1194
 11
-78.5376
 21
-46.5079
  0
LINE
  8
0
 10
-78.5376
 20
-46.5079
 11
-77.0376
 21
-45.4181
  0
LINE
  8
0
 10
-77.0376
 20
-45.4181
 11
-75.6254
 21
-44.1047
  0
LINE
  8
0
 10
-75.6254
 20
-44.1047
 11
-74.5685
 21
-42.4915
  0
LINE
  8
0
 10
-74.5685
 20
-42.4915
 11
-74.1315
 21
-41.418
  0
LINE
  8
0
 10
-74.1315
 20
-41.418
 11
-73.5585
 21
-39.6547
  0
LINE
  8
0
 10
-73.5585
 20
-39.6547
 11
-73.188
 21
-37.762
  0
LINE
  8
0
 10
-73.188
 20
-37.762
 11
-73.2812
 21
-35.8357
  0
LINE
  8
0
 10
-73.2812
 20
-35.8357
 11
-73.3392
 21
-35.6004
  0
LINE
  8
0
 10
-73.3392
 20
-35.6004
 11
-60.9497
 21
-35.6004
  0
LINE
  8
0
 10
-60.9497
 20
-35.6004
 11
-61.146
 21
-36.6032
  0
LINE
  8
0
 10
-61.146
 20
-36.6032
 11
-61.0528
 21
-38.5295
  0
LINE
  8
0
 10
-61.0528
 20
-38.5295
 11
-60.7755
 21
-39.6547
  0
LINE
  8
0
 10
-60.7755
 20
-39.6547
 11
-60.2025
 21
-41.418
  0
LINE
  8
0
 10
-60.2025
 20
-41.418
 11
-59.3898
 21
-43.167
  0
LINE
  8
0
 10
-59.3898
 20
-43.167
 11
-58.1822
 21
-44.6707
  0
LINE
  8
0
 10
-58.1822
 20
-44.6707
 11
-57.2963
 21
-45.4181
  0
LINE
  8
0
 10
-57.2963
 20
-45.4181
 11
-55.7963
 21
-46.5079
  0
LINE
  8
0
 10
-55.7963
 20
-46.5079
 11
-54.1108
 21
-47.4452
  0
LINE
  8
0
 10
-54.1108
 20
-47.4452
 11
-52.25
 21
-47.9518
  0
LINE
  8
0
 10
-52.25
 20
-47.9518
 11
-51.0941
 21
-48.0358
  0
LINE
  8
0
 10
-51.0941
 20
-48.0358
 11
-34.2399
 21
-48.0358
  0
LINE
  8
0
 10
-34.2399
 20
-48.0358
 11
-32.3254
 21
-47.8033
  0
LINE
  8
0
 10
-32.3254
 20
-47.8033
 11
-30.5222
 21
-47.1194
  0
LINE
  8
0
 10
-30.5222
 20
-47.1194
 11
-29.5377
 21
-46.5079
  0
LINE
  8
0
 10
-29.5377
 20
-46.5079
 11
-28.0377
 21
-45.4181
  0
LINE
  8
0
 10
-28.0377
 20
-45.4181
 11
-26.6254
 21
-44.1047
  0
LINE
  8
0
 10
-26.6254
 20
-44.1047
 11
-25.5685
 21
-42.4915
  0
LINE
  8
0
 10
-25.5685
 20
-42.4915
 11
-25.1315
 21
-41.4181
  0
LINE
  8
0
 10
-25.1315
 20
-41.4181
 11
-24.5585
 21
-39.6548
  0
LINE
  8
0
 10
-24.5585
 20
-39.6548
 11
-24.188
 21
-37.7621
  0
LINE
  8
0
 10
-24.188
 20
-37.7621
 11
-24.2812
 21
-35.8358
  0
LINE
  8
0
 10
-24.2812
 20
-35.8358
 11
-24.5585
 21
-34.7105
  0
LINE
  8
0
 10
-24.5585
 20
-34.7105
 11
-25.1315
 21
-32.9471
  0
LINE
  8
0
 10
-25.1315
 20
-32.9471
 11
-25.9442
 21
-31.1981
  0
LINE
  8
0
 10
-25.9442
 20
-31.1981
 11
-27.1519
 21
-29.6944
  0
LINE
  8
0
 10
-27.1519
 20
-29.6944
 11
-28.0377
 21
-28.9471
  0
LINE
  8
0
 10
-28.0377
 20
-28.9471
 11
-29.5377
 21
-27.8573
  0
LINE
  8
0
 10
-29.5377
 20
-27.8573
 11
-31.2232
 21
-26.92
  0
LINE
  8
0
 10
-31.2232
 20
-26.92
 11
-33.084
 21
-26.4134
  0
LINE
  8
0
 10
-33.084
 20
-26.4134
 11
-34.2399
 21
-26.3294
  0
LINE
  8
0
 10
-34.2399
 20
-26.3294
 11
-41.2066
 21
-26.3294
  0
LINE
  8
0
 10
-41.2066
 20
-26.3294
 11
-40.6035
 21
-25.4994
  0
LINE
  8
0
 10
-40.6035
 20
-25.4994
 11
-39.0356
 21
-22.7836
  0
LINE
  8
0
 10
-39.0356
 20
-22.7836
 11
-38.3554
 21
-21.2558
  0
LINE
  8
0
 10
-38.3554
 20
-21.2558
 11
-37.3863
 21
-18.2734
  0
LINE
  8
0
 10
-37.3863
 20
-18.2734
 11
-37.0386
 21
-16.6375
  0
LINE
  8
0
 10
-37.0386
 20
-16.6375
 11
-36.8665
 21
-15
  0
LINE
  8
0
 10
-36.8665
 20
-15
 11
-9.93178
 21
-15
  0
LINE
  8
0
 10
-9.93178
 20
-15
 11
-6.81853
 21
-18.7102
  0
LINE
  8
0
 10
-6.81853
 20
-18.7102
 11
-5.40981
 21
-20.0274
  0
LINE
  8
0
 10
-5.40981
 20
-20.0274
 11
-3.72681
 21
-20.9692
  0
LINE
  8
0
 10
-3.72681
 20
-20.9692
 11
-1.86732
 21
-21.4808
  0
LINE
  8
0
 10
-1.86732
 20
-21.4808
 11
0.0605621
 21
-21.5326
  0
LINE
  8
0
 10
0.0605621
 20
-21.5326
 11
1.94482
 21
-21.1215
  0
LINE
  8
0
 10
1.94482
 20
-21.1215
 11
4.45213
 21
-19.6963
  0
LINE
  8
0
 10
4.45213
 20
-19.6963
 11
18.6239
 21
-7.8047
  0
LINE
  8
0
 10
18.6239
 20
-7.8047
 11
19.9411
 21
-6.39598
  0
LINE
  8
0
 10
19.9411
 20
-6.39598
 11
20.8829
 21
-4.71298
  0
LINE
  8
0
 10
20.8829
 20
-4.71298
 11
21.3946
 21
-2.8535
  0
LINE
  8
0
 10
21.3946
 20
-2.8535
 11
21.4463
 21
-0.925613
  0
LINE
  8
0
 10
21.4463
 20
-0.925613
 11
21.0352
 21
0.958649
  0
LINE
  8
0
 10
21.0352
 20
0.958649
 11
20.1852
 21
2.68977
  0
LINE
  8
0
 10
20.1852
 20
2.68977
 11
19.61
 21
3.46596
  0
LINE
  8
0
 10
19.61
 20
3.46596
 11
6.81853
 21
18.7102
  0
LINE
  8
0
 10
6.81853
 20
18.7102
 11
5.40981
 21
20.0274
  0
LINE
  8
0
 10
5.40981
 20
20.0274
 11
3.72681
 21
20.9692
  0
LINE
  8
0
 10
3.72681
 20
20.9692
 11
1.86732
 21
21.4808
  0
LINE
  8
0
 10
1.86732
 20
21.4808
 11
-0.0605621
 21
21.5326
  0
LINE
  8
0
 10
-0.0605621
 20
21.5326
 11
-1.94482
 21
21.1215
  0
LINE
  8
0
 10
-1.94482
 20
21.1215
 11
-4.45213
 21
19.6963
  0
LINE
  8
0
 10
-4.45213
 20
19.6963
 11
-18.6239
 21
7.8047
  0
LINE
  8
0
 10
-18.6239
 20
7.8047
 11
-19.9411
 21
6.39598
  0
LINE
  8
0
 10
-19.9411
 20
6.39598
 11
-20.7223
 21
5
  0
LINE
  8
0
 10
-20.7223
 20
5
 11
-26.5568
 21
5
  0
LINE
  8
0
 10
-26.5568
 20
5
 11
-25.5685
 21
6.50848
  0
LINE
  8
0
 10
-25.5685
 20
6.50848
 11
-25.1315
 21
7.58188
  0
LINE
  8
0
 10
-25.1315
 20
7.58188
 11
-24.5585
 21
9.34525
  0
LINE
  8
0
 10
-24.5585
 20
9.34525
 11
-24.188
 21
11.2379
  0
LINE
  8
0
 10
-24.188
 20
11.2379
 11
-24.2812
 21
13.1642
  0
LINE
  8
0
 10
-24.2812
 20
13.1642
 11
-24.5585
 21
14.2895
  0
LINE
  8
0
 10
-24.5585
 20
14.2895
 11
-25.1315
 21
16.0529
  0
LINE
  8
0
 10
-25.1315
 20
16.0529
 11
-25.9442
 21
17.8019
  0
LINE
  8
0
 10
-25.9442
 20
17.8019
 11
-27.1519
 21
19.3055
  0
LINE
  8
0
 10
-27.1519
 20
19.3055
 11
-28.0377
 21
20.0529
  0
LINE
  8
0
 10
-28.0377
 20
20.0529
 11
-29.5377
 21
21.1427
  0
LINE
  8
0
 10
-29.5377
 20
21.1427
 11
-31.2232
 21
22.0799
  0
LINE
  8
0
 10
-31.2232
 20
22.0799
 11
-33.084
 21
22.5866
  0
LINE
  8
0
 10
-33.084
 20
22.5866
 11
-34.2399
 21
22.6705
  0
LINE
  8
0
 10
-34.2399
 20
22.6705
 11
-51.0941
 21
22.6705
  0
LINE
  8
0
 10
-51.0941
 20
22.6705
 11
-53.0086
 21
22.4381
  0
LINE
  8
0
 10
-53.0086
 20
22.4381
 11
-54.8118
 21
21.7542
  0
LINE
  8
0
 10
-54.8118
 20
21.7542
 11
-55.7963
 21
21.1427
  0
LINE
  8
0
 10
-55.7963
 20
21.1427
 11
-57.2963
 21
20.0529
  0
LINE
  8
0
 10
-57.2963
 20
20.0529
 11
-58.7086
 21
18.7395
  0
LINE
  8
0
 10
-58.7086
 20
18.7395
 11
-59.7655
 21
17.1263
  0
LINE
  8
0
 10
-59.7655
 20
17.1263
 11
-60.2025
 21
16.0528
  0
LINE
  8
0
 10
-60.2025
 20
16.0528
 11
-60.7755
 21
14.2895
  0
LINE
  8
0
 10
-60.7755
 20
14.2895
 11
-61.146
 21
12.3968
  0
LINE
  8
0
 10
-61.146
 20
12.3968
 11
-61.0528
 21
10.4705
  0
LINE
  8
0
 10
-61.0528
 20
10.4705
 11
-60.9948
 21
10.2352
  0
LINE
  8
0
 10
-60.9948
 20
10.2352
 11
-73.3843
 21
10.2352
  0
LINE
  8
0
 10
-73.3843
 20
10.2352
 11
-73.188
 21
11.238
  0
LINE
  8
0
 10
-73.188
 20
11.238
 11
-73.2812
 21
13.1643
  0
LINE
  8
0
 10
-73.2812
 20
13.1643
 11
-73.5585
 21
14.2895
  0
LINE
  8
0
 10
-73.5585
 20
14.2895
 11
-74.1315
 21
16.0528
  0
LINE
  8
0
 10
-74.1315
 20
16.0528
 11
-74.9442
 21
17.8018
  0
LINE
  8
0
 10
-74.9442
 20
17.8018
 11
-76.1518
 21
19.3055
  0
LINE
  8
0
 10
-76.1518
 20
19.3055
 11
-77.0376
 21
20.0529
  0
LINE
  8
0
 10
-77.0376
 20
20.0529
 11
-78.5376
 21
21.1427
  0
LINE
  8
0
 10
-78.5376
 20
21.1427
 11
-80.2232
 21
22.0799
  0
LINE
  8
0
 10
-80.2232
 20
22.0799
 11
-82.084
 21
22.5866
  0
LINE
  8
0
 10
-82.084
 20
22.5866
 11
-83.2399
 21
22.6705
  0
LINE
  8
0
 10
-83.2399
 20
22.6705
 11
-100.094
 21
22.6705
  0
LINE
  8
0
 10
-100.094
 20
22.6705
 11
-102.009
 21
22.4381
  0
LINE
  8
0
 10
-102.009
 20
22.4381
 11
-103.812
 21
21.7542
  0
LINE
  8
0
 10
-103.812
 20
21.7542
 11
-104.796
 21
21.1427
  0
LINE
  8
0
 10
-104.796
 20
21.1427
 11
-106.296
 21
20.0529
  0
LINE
  8
0
 10
-106.296
 20
20.0529
 11
-107.709
 21
18.7395
  0
LINE
  8
0
 10
-107.709
 20
18.7395
 11
-108.765
 21
17.1263
  0
LINE
  8
0
 10
-108.765
 20
17.1263
 11
-109.202
 21
16.0529
  0
LINE
  8
0
 10
-109.202
 20
16.0529
 11
-109.775
 21
14.2895
  0
LINE
  8
0
 10
-109.775
 20
14.2895
 11
-110.146
 21
12.3969
  0
LINE
  8
0
 10
-110.146
 20
12.3969
 11
-110.053
 21
10.4706
  0
LINE
  8
0
 10
-110.053
 20
10.4706
 11
-109.775
 21
9.34525
  0
LINE
  8
0
 10
-109.775
 20
9.34525
 11
-109.202
 21
7.58188
  0
LINE
  8
0
 10
-109.202
 20
7.58188
 11
-108.39
 21
5.8329
  0
LINE
  8
0
 10
-108.39
 20
5.8329
 11
-107.182
 21
4.32922
  0
LINE
  8
0
 10
-107.182
 20
4.32922
 11
-106.296
 21
3.58188
  0
LINE
  8
0
 10
-106.296
 20
3.58188
 11
-104.796
 21
2.49207
  0
LINE
  8
0
 10
-104.796
 20
2.49207
 11
-103.111
 21
1.55481
  0
LINE
  8
0
 10
-103.111
 20
1.55481
 11
-101.25
 21
1.04816
  0
LINE
  8
0
 10
-101.25
 20
1.04816
 11
-100.094
 21
0.964203
  0
LINE
  8
0
 10
-100.094
 20
0.964203
 11
-93.1274
 21
0.964203
  0
LINE
  8
0
 10
-93.1274
 20
0.964203
 11
-93.7305
 21
0.134155
  0
LINE
  8
0
 10
-93.7305
 20
0.134155
 11
-95.2984
 21
-2.58157
  0
LINE
  8
0
 10
-95.2984
 20
-2.58157
 11
-95.9786
 21
-4.10941
  0
LINE
  8
0
 10
-95.9786
 20
-4.10941
 11
-96.9476
 21
-7.09178
  0
LINE
  8
0
 10
-96.9476
 20
-7.09178
 11
-97.2954
 21
-8.72769
  0
LINE
  8
0
 10
-97.2954
 20
-8.72769
 11
-97.6232
 21
-11.8464
  0
LINE
  8
0
 10
-97.6232
 20
-11.8464
 11
-97.6232
 21
-13.5188
  0
LINE
  8
0
 10
-97.6232
 20
-13.5188
 11
-97.2954
 21
-16.6375
  0
LINE
  8
0
 10
-97.2954
 20
-16.6375
 11
-96.9476
 21
-18.2734
  0
LINE
  8
0
 10
-96.9476
 20
-18.2734
 11
-95.9786
 21
-21.2558
  0
LINE
  8
0
 10
-95.9786
 20
-21.2558
 11
-95.2984
 21
-22.7836
  0
LINE
  8
0
 10
-95.2984
 20
-22.7836
 11
-93.7305
 21
-25.4994
  0
LINE
  8
0
 10
-93.7305
 20
-25.4994
 11
-93.1274
 21
-26.3294
  0
LINE
  8
0
 10
-93.1274
 20
-26.3294
 11
-100.094
 21
-26.3294
  0
LINE
  8
0
 10
-100.094
 20
-26.3294
 11
-102.009
 21
-26.5619
  0
LINE
  8
0
 10
-102.009
 20
-26.5619
 11
-103.812
 21
-27.2458
  0
LINE
  8
0
 10
-103.812
 20
-27.2458
 11
-104.796
 21
-27.8573
  0
LINE
  8
0
 10
-104.796
 20
-27.8573
 11
-106.296
 21
-28.9471
  0
LINE
  8
0
 10
-106.296
 20
-28.9471
 11
-107.709
 21
-30.2605
  0
LINE
  8
0
 10
-107.709
 20
-30.2605
 11
-108.765
 21
-31.8737
  0
LINE
  8
0
 10
-108.765
 20
-31.8737
 11
-109.202
 21
-32.9471
  0
LINE
  8
0
 10
-109.202
 20
-32.9471
 11
-109.775
 21
-34.7105
  0
LINE
  8
0
 10
-109.775
 20
-34.7105
 11
-110.146
 21
-36.6031
  0
LINE
  8
0
 10
-110.146
 20
-36.6031
 11
-110.053
 21
-38.5295
  0
LINE
  8
0
 10
-110.053
 20
-38.5295
 11
-109.775
 21
-39.6548
  0
LINE
  8
0
 10
-109.775
 20
-39.6548
 11
-109.202
 21
-41.4181
  0
LINE
  8
0
 10
-109.202
 20
-41.4181
 11
-108.39
 21
-43.1671
  0
LINE
  8
0
 10
-108.39
 20
-43.1671
 11
-107.182
 21
-44.6708
  0
LINE
  8
0
 10
-107.182
 20
-44.6708
 11
-106.296
 21
-45.4181
  0
LINE
  8
0
 10
-106.296
 20
-45.4181
 11
-104.796
 21
-46.5079
  0
LINE
  8
0
 10
-104.796
 20
-46.5079
 11
-103.111
 21
-47.4452
  0
LINE
  8
0
 10
-103.111
 20
-47.4452
 11
-101.25
 21
-47.9518
  0
LINE
  8
0
 10
-101.25
 20
-47.9518
 11
-100.094
 21
-48.0358
  0
LINE
  8
0
 10
-100.094
 20
-48.0358
 11
-83.2399
 21
-48.0358
  0
LINE
  8
0
 10
-83.2399
 20
-48.0358
 11
-81.3254
 21
-47.8033
  0
LINE
  8
0
 10
-51.0941
 20
8.9642
 11
-52.5941
 21
10.054
  0
LINE
  8
0
 10
-52.5941
 20
10.054
 11
-53.167
 21
11.8174
  0
LINE
  8
0
 10
-53.167
 20
11.8174
 11
-52.5941
 21
13.5807
  0
LINE
  8
0
 10
-52.5941
 20
13.5807
 11
-51.0941
 21
14.6705
  0
LINE
  8
0
 10
-51.0941
 20
14.6705
 11
-34.2399
 21
14.6705
  0
LINE
  8
0
 10
-34.2399
 20
14.6705
 11
-32.7399
 21
13.5807
  0
LINE
  8
0
 10
-32.7399
 20
13.5807
 11
-32.167
 21
11.8174
  0
LINE
  8
0
 10
-32.167
 20
11.8174
 11
-32.7399
 21
10.054
  0
LINE
  8
0
 10
-32.7399
 20
10.054
 11
-34.2399
 21
8.9642
  0
LINE
  8
0
 10
-34.2399
 20
8.9642
 11
-51.0941
 21
8.9642
  0
LINE
  8
0
 10
-100.094
 20
8.9642
 11
-101.594
 21
10.054
  0
LINE
  8
0
 10
-101.594
 20
10.054
 11
-102.167
 21
11.8174
  0
LINE
  8
0
 10
-102.167
 20
11.8174
 11
-101.594
 21
13.5807
  0
LINE
  8
0
 10
-101.594
 20
13.5807
 11
-100.094
 21
14.6705
  0
LINE
  8
0
 10
-100.094
 20
14.6705
 11
-83.2399
 21
14.6705
  0
LINE
  8
0
 10
-83.2399
 20
14.6705
 11
-81.7399
 21
13.5807
  0
LINE
  8
0
 10
-81.7399
 20
13.5807
 11
-81.167
 21
11.8174
  0
LINE
  8
0
 10
-81.167
 20
11.8174
 11
-81.7399
 21
10.054
  0
LINE
  8
0
 10
-81.7399
 20
10.054
 11
-83.2399
 21
8.9642
  0
LINE
  8
0
 10
-83.2399
 20
8.9642
 11
-100.094
 21
8.9642
  0
LINE
  8
0
 10
-13.4816
 20
1.67635
 11
0.69017
 21
13.5679
  0
LINE
  8
0
 10
0.69017
 20
13.5679
 11
13.4816
 21
-1.67635
  0
LINE
  8
0
 10
13.4816
 20
-1.67635
 11
-0.69017
 21
-13.5679
  0
LINE
  8
0
 10
-0.69017
 20
-13.5679
 11
-13.4816
 21
1.67635
  0
LINE
  8
0
 10
-76.2349
 20
-27.6004
 11
-79.3022
 21
-26.9484
  0
LINE
  8
0
 10
-79.3022
 20
-26.9484
 11
-82.167
 21
-25.673
  0
LINE
  8
0
 10
-82.167
 20
-25.673
 11
-84.7039
 21
-23.8298
  0
LINE
  8
0
 10
-84.7039
 20
-23.8298
 11
-86.8022
 21
-21.4994
  0
LINE
  8
0
 10
-86.8022
 20
-21.4994
 11
-88.3702
 21
-18.7836
  0
LINE
  8
0
 10
-88.3702
 20
-18.7836
 11
-89.3392
 21
-15.8013
  0
LINE
  8
0
 10
-89.3392
 20
-15.8013
 11
-89.667
 21
-12.6826
  0
LINE
  8
0
 10
-89.667
 20
-12.6826
 11
-89.3392
 21
-9.56393
  0
LINE
  8
0
 10
-89.3392
 20
-9.56393
 11
-88.3702
 21
-6.58156
  0
LINE
  8
0
 10
-88.3702
 20
-6.58156
 11
-86.8022
 21
-3.86583
  0
LINE
  8
0
 10
-86.8022
 20
-3.86583
 11
-84.7039
 21
-1.53543
  0
LINE
  8
0
 10
-84.7039
 20
-1.53543
 11
-82.167
 21
0.307755
  0
LINE
  8
0
 10
-82.167
 20
0.307755
 11
-79.3022
 21
1.58322
  0
LINE
  8
0
 10
-79.3022
 20
1.58322
 11
-76.2349
 21
2.2352
  0
LINE
  8
0
 10
-76.2349
 20
2.2352
 11
-58.0991
 21
2.2352
  0
LINE
  8
0
 10
-58.0991
 20
2.2352
 11
-55.0317
 21
1.58322
  0
LINE
  8
0
 10
-55.0317
 20
1.58322
 11
-52.167
 21
0.307755
  0
LINE
  8
0
 10
-52.167
 20
0.307755
 11
-49.63
 21
-1.53543
  0
LINE
  8
0
 10
-49.63
 20
-1.53543
 11
-47.5317
 21
-3.86583
  0
LINE
  8
0
 10
-47.5317
 20
-3.86583
 11
-45.9638
 21
-6.58156
  0
LINE
  8
0
 10
-45.9638
 20
-6.58156
 11
-44.9948
 21
-9.56393
  0
LINE
  8
0
 10
-44.9948
 20
-9.56393
 11
-44.667
 21
-12.6826
  0
LINE
  8
0
 10
-44.667
 20
-12.6826
 11
-44.9948
 21
-15.8013
  0
LINE
  8
0
 10
-44.9948
 20
-15.8013
 11
-45.9638
 21
-18.7836
  0
LINE
  8
0
 10
-45.9638
 20
-18.7836
 11
-47.5317
 21
-21.4994
  0
LINE
  8
0
 10
-47.5317
 20
-21.4994
 11
-49.63
 21
-23.8298
  0
LINE
  8
0
 10
-49.63
 20
-23.8298
 11
-52.167
 21
-25.673
  0
LINE
  8
0
 10
-52.167
 20
-25.673
 11
-55.0317
 21
-26.9484
  0
LINE
  8
0
 10
-55.0317
 20
-26.9484
 11
-58.0991
 21
-27.6004
  0
LINE
  8
0
 10
-58.0991
 20
-27.6004
 11
-76.2349
 21
-27.6004
  0
LINE
  8
0
 10
-100.094
 20
-40.0358
 11
-101.594
 21
-38.946
  0
LINE
  8
0
 10
-101.594
 20
-38.946
 11
-102.167
 21
-37.1826
  0
LINE
  8
0
 10
-102.167
 20
-37.1826
 11
-101.594
 21
-35.4192
  0
LINE
  8
0
 10
-101.594
 20
-35.4192
 11
-100.094
 21
-34.3294
  0
LINE
  8
0
 10
-100.094
 20
-34.3294
 11
-83.2399
 21
-34.3294
  0
LINE
  8
0
 10
-83.2399
 20
-34.3294
 11
-81.7399
 21
-35.4192
  0
LINE
  8
0
 10
-81.7399
 20
-35.4192
 11
-81.167
 21
-37.1826
  0
LINE
  8
0
 10
-81.167
 20
-37.1826
 11
-81.7399
 21
-38.946
  0
LINE
  8
0
 10
-81.7399
 20
-38.946
 11
-83.2399
 21
-40.0358
  0
LINE
  8
0
 10
-83.2399
 20
-40.0358
 11
-100.094
 21
-40.0358
  0
LINE
  8
0
 10
-51.0941
 20
-40.0358
 11
-52.5941
 21
-38.946
  0
LINE
  8
0
 10
-52.5941
 20
-38.946
 11
-53.167
 21
-37.1826
  0
LINE
  8
0
 10
-53.167
 20
-37.1826
 11
-52.5941
 21
-35.4192
  0
LINE
  8
0
 10
-52.5941
 20
-35.4192
 11
-51.0941
 21
-34.3294
  0
LINE
  8
0
 10
-51.0941
 20
-34.3294
 11
-34.2399
 21
-34.3294
  0
LINE
  8
0
 10
-34.2399
 20
-34.3294
 11
-32.7399
 21
-35.4192
  0
LINE
  8
0
 10
-32.7399
 20
-35.4192
 11
-32.167
 21
-37.1826
  0
LINE
  8
0
 10
-32.167
 20
-37.1826
 11
-32.7399
 21
-38.946
  0
LINE
  8
0
 10
-32.7399
 20
-38.946
 11
-34.2399
 21
-40.0358
  0
LINE
  8
0
 10
-34.2399
 20
-40.0358
 11
-51.0941
 21
-40.0358
  0
ENDSEC
  0
SECTION
  2
OBJECTS
  0
DICTIONARY
  0
ENDSEC
  0
EOF
